<?xml version="1.0" ?><!DOCTYPE svg  PUBLIC '-//W3C//DTD SVG 1.1//EN'  'http://www.w3.org/Graphics/SVG/1.1/DTD/svg11.dtd'><svg enable-background="new 0 0 64 64" height="64px" id="Layer_1" version="1.1" viewBox="0 0 64 64" width="64px" xml:space="preserve" xmlns="http://www.w3.org/2000/svg" xmlns:xlink="http://www.w3.org/1999/xlink"><path d="M58.001,40.1c-2.208-1.275-6.086-1.739-8.47-0.271l-1.727-0.998c1.499-2.103,3.281-3.769,5.042-4.674  c2.1,0.654,4.097,0.505,5.707-0.425c0.618-0.357,0.999-1.018,0.999-1.732s-0.382-1.375-1-1.732  c-1.611-0.929-3.607-1.077-5.706-0.424c-1.761-0.905-3.543-2.571-5.041-4.674l1.726-0.998c2.384,1.468,6.262,1.005,8.47-0.271  c2.865-1.654,3.851-5.331,2.196-8.196c-1.654-2.866-5.331-3.851-8.196-2.196c-2.209,1.275-4.549,4.401-4.47,7.199l-1.724,0.997  c-1.065-2.343-1.612-4.711-1.516-6.682c1.608-1.491,2.484-3.294,2.484-5.152c0-0.714-0.381-1.375-1-1.732  c-0.619-0.357-1.381-0.357-2,0c-1.609,0.929-2.732,2.589-3.22,4.729c-1.66,1.071-3.99,1.782-6.557,2.029v-1.425  C36.463,12.14,38,8.55,38,6c0-3.309-2.691-6-6-6s-6,2.691-6,6c0,2.55,1.537,6.14,4,7.471v1.425  c-2.566-0.248-4.896-0.958-6.557-2.029c-0.486-2.14-1.61-3.8-3.22-4.729c-0.619-0.357-1.381-0.357-2,0s-1,1.018-1,1.732  c0,1.858,0.876,3.662,2.485,5.153c0.097,1.971-0.451,4.339-1.517,6.682l-1.724-0.997c0.079-2.798-2.261-5.924-4.47-7.199  c-2.865-1.654-6.542-0.669-8.196,2.196C2.148,18.57,3.134,22.246,5.999,23.9c2.208,1.276,6.086,1.739,8.47,0.271l1.726,0.998  c-1.498,2.103-3.28,3.769-5.041,4.673c-2.099-0.654-4.098-0.506-5.706,0.425c-0.619,0.357-1,1.018-1,1.732  c0,0.715,0.381,1.375,1,1.732c1.61,0.929,3.605,1.079,5.706,0.425c1.761,0.904,3.543,2.57,5.042,4.674l-1.727,0.998  c-2.384-1.468-6.262-1.004-8.47,0.271c-2.865,1.654-3.851,5.33-2.196,8.195c1.654,2.866,5.331,3.852,8.196,2.197  c2.209-1.275,4.549-4.402,4.47-7.199l1.725-0.998c1.064,2.343,1.611,4.711,1.515,6.682c-1.609,1.491-2.484,3.295-2.484,5.152  c0,0.715,0.382,1.375,1,1.732c0.62,0.357,1.382,0.356,2,0c1.609-0.93,2.732-2.59,3.22-4.729c1.661-1.071,3.99-1.781,6.557-2.029  v1.426c-2.463,1.331-4,4.92-4,7.471c0,3.309,2.691,6,6,6s6-2.691,6-6c0-2.551-1.537-6.14-4-7.471v-1.426  c2.566,0.248,4.896,0.958,6.557,2.029c0.486,2.139,1.61,3.8,3.22,4.729c0.31,0.178,0.655,0.268,1,0.268c0.346,0,0.691-0.09,1-0.268  c0.619-0.357,1-1.019,1-1.732c0-1.858-0.876-3.661-2.485-5.152c-0.097-1.971,0.45-4.338,1.516-6.682l1.725,0.998  c-0.079,2.797,2.261,5.924,4.47,7.199c2.865,1.654,6.542,0.669,8.196-2.197C61.852,45.43,60.866,41.754,58.001,40.1z M54.001,16.972  c0.955-0.551,2.181-0.223,2.732,0.732c0.551,0.955,0.223,2.181-0.732,2.732c-1.42,0.82-4.068,0.779-4.467,0.264  C51.292,20.106,52.581,17.792,54.001,16.972z M12.466,20.7c-0.398,0.516-3.047,0.556-4.467-0.264  c-0.955-0.551-1.283-1.777-0.732-2.732c0.552-0.955,1.777-1.283,2.732-0.732C11.419,17.792,12.708,20.106,12.466,20.7z   M9.999,47.027c-0.955,0.552-2.181,0.223-2.732-0.731c-0.551-0.955-0.223-2.181,0.732-2.732c1.42-0.819,4.068-0.779,4.467-0.264  C12.708,43.895,11.419,46.208,9.999,47.027z M48.818,32c-1.631,1.242-3.165,2.889-4.493,4.818l-1.749-1.012  c0.77-1.156,1.42-1.943,1.757-2.188c0.52-0.375,0.827-0.979,0.827-1.62s-0.308-1.244-0.828-1.62  c-0.339-0.245-0.988-1.031-1.756-2.186l1.749-1.012C45.653,29.112,47.188,30.758,48.818,32z M23.608,32  c0.456-0.57,0.894-1.198,1.286-1.799l1.211,0.7C26.039,31.257,26,31.624,26,32s0.039,0.743,0.105,1.1l-1.211,0.7  C24.502,33.197,24.063,32.57,23.608,32z M35.893,27.439c-0.553-0.473-1.193-0.843-1.893-1.091v-1.402  c0.716-0.039,1.476-0.104,2.196-0.213c0.265,0.676,0.588,1.366,0.911,2.004L35.893,27.439z M30,26.349  c-0.699,0.248-1.34,0.618-1.893,1.091l-1.214-0.702c0.323-0.639,0.646-1.328,0.91-2.004c0.721,0.109,1.48,0.174,2.196,0.213V26.349z   M28.107,36.561c0.553,0.473,1.193,0.844,1.893,1.091v1.401c-0.715,0.039-1.476,0.105-2.195,0.214  c-0.266-0.677-0.588-1.365-0.911-2.004L28.107,36.561z M34,37.651c0.699-0.247,1.34-0.618,1.893-1.091l1.214,0.702  c-0.324,0.638-0.646,1.327-0.912,2.004c-0.719-0.108-1.479-0.173-2.194-0.213V37.651z M37.895,33.1C37.961,32.743,38,32.376,38,32  s-0.039-0.743-0.105-1.1l1.211-0.7c0.393,0.602,0.83,1.229,1.285,1.8c-0.455,0.57-0.893,1.198-1.285,1.799L37.895,33.1z   M40.409,17.435c0.261,2.027,0.915,4.173,1.918,6.283l-1.749,1.011c-0.612-1.237-0.966-2.187-1.009-2.6  c-0.065-0.638-0.434-1.206-0.989-1.527c-0.557-0.321-1.231-0.354-1.817-0.093c-0.379,0.17-1.381,0.339-2.763,0.427V18.91  C36.331,18.724,38.521,18.224,40.409,17.435z M32,4c1.103,0,2,0.897,2,2c0,1.635-1.352,3.899-2,4c-0.648-0.1-2-2.364-2-4  C30,4.897,30.897,4,32,4z M23.591,17.435c1.888,0.79,4.078,1.289,6.409,1.476v2.027c-1.381-0.088-2.383-0.258-2.762-0.428  c-0.587-0.262-1.263-0.228-1.817,0.093c-0.557,0.321-0.925,0.889-0.99,1.527c-0.043,0.413-0.396,1.363-1.009,2.601l-1.749-1.012  C22.676,21.608,23.33,19.462,23.591,17.435z M15.182,32c1.63-1.242,3.165-2.888,4.493-4.818l1.749,1.012  c-0.77,1.156-1.42,1.942-1.757,2.186c-0.52,0.376-0.827,0.979-0.827,1.62c0,0.642,0.308,1.244,0.827,1.62  c0.337,0.245,0.987,1.031,1.757,2.188l-1.748,1.012C18.347,34.888,16.813,33.242,15.182,32z M23.591,46.564  c-0.26-2.027-0.915-4.173-1.917-6.282l1.748-1.012c0.612,1.237,0.966,2.187,1.009,2.6c0.065,0.638,0.434,1.206,0.989,1.526  c0.309,0.178,0.653,0.268,1,0.268c0.277,0,0.557-0.057,0.816-0.174c0.38-0.17,1.382-0.339,2.764-0.428v2.027  C27.669,45.275,25.479,45.775,23.591,46.564z M32,60c-1.103,0-2-0.896-2-2c0-1.64,1.359-3.913,1.994-4C32.641,54.087,34,56.36,34,58  C34,59.104,33.103,60,32,60z M40.409,46.564c-1.888-0.789-4.078-1.289-6.409-1.475v-2.027c1.382,0.089,2.384,0.258,2.764,0.428  c0.586,0.262,1.262,0.227,1.816-0.094c0.556-0.32,0.924-0.889,0.989-1.526c0.043-0.414,0.396-1.364,1.008-2.601l1.749,1.013  C41.324,42.393,40.669,44.537,40.409,46.564z M56.733,46.296c-0.552,0.954-1.777,1.283-2.732,0.731  c-1.42-0.819-2.709-3.133-2.467-3.728c0.398-0.516,3.047-0.556,4.467,0.264C56.956,44.115,57.284,45.341,56.733,46.296z"/></svg>